<?xml version="1.0" standalone="no"?>
<!DOCTYPE svg PUBLIC "-//W3C//DTD SVG 1.1//EN" "http://www.w3.org/Graphics/SVG/1.1/DTD/svg11.dtd" >
<svg xmlns="http://www.w3.org/2000/svg">
<metadata></metadata>
<defs>
<font id="dincond-regularregular" horiz-adv-x="739" >
<font-face units-per-em="2048" ascent="1638" descent="-410" />
<missing-glyph horiz-adv-x="397" />
<glyph horiz-adv-x="2048" />
<glyph horiz-adv-x="2048" />
<glyph unicode="&#xd;" horiz-adv-x="397" />
<glyph unicode=" "  horiz-adv-x="397" />
<glyph unicode="&#x09;" horiz-adv-x="397" />
<glyph unicode="&#xa0;" horiz-adv-x="397" />
<glyph unicode="!" horiz-adv-x="464" d="M184 0v154h154v-154h-154zM205 383v1075h114v-1075h-114z" />
<glyph unicode="&#x22;" horiz-adv-x="720" d="M127 1083v375h133v-375h-133zM463 1083v375h131v-375h-131z" />
<glyph unicode="#" horiz-adv-x="1024" d="M113 471v104h161l43 334h-149v103h164l57 446h111l-58 -446h209l58 446h110l-57 -446h147l2 -103h-163l-41 -334h149v-104h-166l-59 -471h-111l60 471h-209l-60 -471h-110l59 471h-147zM385 575h209l43 334h-209z" />
<glyph unicode="$" horiz-adv-x="827" d="M86 365h121q0 -86 11 -134.5t46 -83.5q37 -37 90 -45v611l-65 26q-55 23 -93 52.5t-59.5 71.5t-31 100.5t-9.5 140.5q0 94 24.5 168t76.5 121q66 61 157 73v185h109v-185q102 -12 166 -75q53 -53 70.5 -120t17.5 -163h-121q0 70 -11.5 117t-43.5 84q-33 35 -78 47v-559 l67 -27q59 -25 96.5 -58.5t58 -80.5t27.5 -108.5t7 -141.5q0 -117 -20.5 -191.5t-69.5 -123.5q-61 -61 -166 -74v-225h-109v223q-117 10 -182 76q-25 25 -41 52t-26.5 62t-14.5 80t-4 105zM217 1106q0 -59 5 -101t20.5 -72t42 -51.5t69.5 -39.5v514q-45 -12 -73 -41 q-35 -35 -49.5 -88t-14.5 -121zM463 104q51 12 78 43q35 39 46 91.5t11 138.5q0 66 -6 112t-21.5 79.5t-41 57t-66.5 42.5v-564z" />
<glyph unicode="%" horiz-adv-x="1263" d="M113 913v359q0 94 56 148.5t144 54.5t145.5 -54.5t57.5 -148.5v-359q0 -94 -57.5 -149t-145.5 -55t-144 55t-56 149zM213 913q0 -53 25.5 -84.5t74.5 -31.5t76 31.5t27 84.5v357q0 53 -27 84.5t-76 31.5t-74.5 -31.5t-25.5 -84.5v-357zM330 0l508 1458h96l-508 -1458h-96 zM750 188v357q0 94 56 149.5t144 55.5t144.5 -55.5t56.5 -149.5v-357q0 -94 -56.5 -149t-144.5 -55t-144 55t-56 149zM848 188q0 -53 26.5 -84.5t75.5 -31.5t76 31.5t27 84.5v357q0 53 -27 85t-76 32t-75.5 -32t-26.5 -85v-357z" />
<glyph unicode="&#x26;" horiz-adv-x="995" d="M78 336q0 68 15.5 125t46 111.5t78.5 108.5t114 114q-53 74 -88 126t-56.5 95t-31 81t-9.5 81q0 57 17.5 110t51.5 94t85 64.5t119 23.5q135 0 204.5 -76.5t69.5 -197.5q0 -66 -12 -117t-40 -99t-70 -96t-101 -104l270 -407q39 63 64.5 159.5t32.5 184.5h110 q-10 -125 -46 -242t-95 -205l178 -270h-131l-113 172q-35 -43 -68.5 -78t-73.5 -59.5t-88 -37.5t-110 -13q-68 0 -127 23.5t-102 68.5t-68.5 110.5t-25.5 149.5zM193 346q0 -51 14 -97t43 -82t69.5 -56.5t94.5 -20.5q80 0 143.5 49t122.5 127l-289 439 q-102 -100 -150 -183.5t-48 -175.5zM260 1182q0 -31 7 -59.5t23.5 -63.5t46.5 -80t75 -109q39 39 71.5 75t54 73t34 79t12.5 95q0 78 -45 126t-117 48q-43 0 -74 -16.5t-50 -43t-28.5 -59.5t-9.5 -65z" />
<glyph unicode="'" horiz-adv-x="387" d="M127 1083v375h133v-375h-133z" />
<glyph unicode="(" horiz-adv-x="454" d="M119 170v1118q0 53 7 101.5t34 97.5q25 47 58.5 85t74.5 79l78 -78q-31 -31 -59.5 -60.5t-47.5 -68.5q-16 -33 -23.5 -75t-7.5 -93v-1094q0 -51 7.5 -93t23.5 -75q18 -39 47 -68.5t60 -60.5l-78 -78q-41 41 -76 82t-57 82q-27 49 -34 97.5t-7 101.5z" />
<glyph unicode=")" horiz-adv-x="454" d="M82 -115l60.5 60.5t47.5 68.5q16 33 23.5 75t7.5 93v1094q0 51 -7 93t-24 75q-18 39 -47.5 68.5l-60.5 60.5l78 78q41 -41 75.5 -79t59.5 -85q27 -49 34 -97.5t7 -101.5v-1118q0 -53 -7 -101.5t-34 -97.5q-23 -41 -58.5 -82t-76.5 -82z" />
<glyph unicode="*" horiz-adv-x="755" d="M104 1034l191 103l-191 102l46 82l188 -113l-6 260h92l-4 -260l186 113l45 -82l-190 -102l190 -103l-45 -82l-186 113l4 -260h-92l6 260l-188 -113z" />
<glyph unicode="+" horiz-adv-x="882" d="M100 514v109h287v286h109v-286h288v-109h-288v-289h-109v289h-287z" />
<glyph unicode="," horiz-adv-x="376" d="M119 158h141v-256l-141 -105v361z" />
<glyph unicode="-" horiz-adv-x="616" d="M113 514v109h391v-109h-391z" />
<glyph unicode="." horiz-adv-x="407" d="M127 0v154h154v-154h-154z" />
<glyph unicode="/" horiz-adv-x="503" d="M4 -152l379 1762h117l-379 -1762h-117z" />
<glyph unicode="0" d="M111 262v934q0 76 19.5 124t53.5 83q33 33 82 52.5t103 19.5q53 0 103 -19.5t83 -52.5q35 -35 54.5 -83t19.5 -124v-934q0 -76 -19.5 -124t-54.5 -83q-33 -33 -83 -52t-103 -19t-102.5 19.5t-82.5 51.5q-35 35 -54 83t-19 124zM225 256q0 -86 42 -128t102 -42 q59 0 102 42t43 128v946q0 86 -43 128t-102 42t-101.5 -42t-42.5 -128v-946z" />
<glyph unicode="1" d="M129 1143v137l209 178h115v-1458h-115v1323z" />
<glyph unicode="2" d="M104 0v96l349 799q27 59 48 136t21 171q0 86 -42 128t-101 42t-102.5 -42t-43.5 -128v-104h-114v102q0 72 19.5 120t54.5 83q33 33 83 52.5t103 19.5t101 -18.5t81 -51.5q35 -35 55.5 -84t20.5 -125q0 -84 -25.5 -173t-58.5 -165l-326 -756h410v-102h-533z" />
<glyph unicode="3" d="M100 260v100h115v-102q0 -86 43 -129t102 -43q63 0 101 43q14 16 24.5 37.5t16.5 54.5t9 77t3 108q0 70 -2 116.5t-8 77.5t-16.5 51.5t-24.5 36.5q-37 43 -103 43h-84v100h84q57 0 93 37q29 29 39 80t10 154q0 102 -11.5 152.5t-35.5 78.5q-33 39 -95 39q-59 0 -97 -42 t-38 -128v-104h-114v100q0 76 18 124t53 83q33 33 79 51.5t99 18.5q113 0 181 -68q20 -20 34.5 -46t23.5 -60.5t13 -82t4 -112.5q0 -106 -10 -157.5t-31 -90.5q-29 -47 -81 -78q25 -14 46 -31.5t35 -37.5q14 -23 24.5 -45.5t17 -56.5t9.5 -83t3 -125q0 -74 -3 -128 t-12.5 -94t-26 -68.5t-40.5 -55.5q-33 -33 -83 -52t-104 -19q-53 0 -102 18t-82 51q-35 35 -55.5 83t-20.5 124z" />
<glyph unicode="4" d="M70 254v102l368 1102h113l-367 -1102h271v408h114v-408h103v-102h-103v-254h-114v254h-385z" />
<glyph unicode="5" d="M106 260v96h115v-98q0 -94 43 -136t105 -42q66 0 102 51q14 20 24.5 46t16.5 62.5t8 90t2 129.5t-3 128t-9 90t-15.5 62.5t-23.5 44.5q-18 27 -45 38.5t-57 11.5q-61 0 -104.5 -45.5t-43.5 -122.5v-68h-106v860h501v-102h-397v-516q27 41 68 67q45 29 110 29 q53 0 94 -20.5t72 -57.5q23 -29 37 -61.5t22.5 -77.5t11.5 -106.5t3 -147.5t-3 -148.5t-12.5 -108.5t-24.5 -81t-42 -64q-33 -37 -83 -58t-103 -21t-102.5 17t-82.5 50q-35 35 -56.5 84t-21.5 125z" />
<glyph unicode="6" d="M102 430q0 123 14.5 215t45.5 176l235 637h115l-233 -627q53 43 118 43q102 0 166 -73q20 -23 33.5 -48.5t22 -65.5t12.5 -101.5t4 -155.5q0 -84 -3 -141.5t-11.5 -99.5t-22.5 -70.5t-37 -55.5q-35 -41 -85 -60t-107 -19q-123 0 -191 79q-23 27 -38 58t-23 71.5t-11.5 98 t-3.5 139.5zM217 430q0 -127 8 -195.5t41 -105.5q39 -43 103 -43q61 0 102 43q33 37 41 105.5t8 195.5t-8 197.5t-41 105.5q-41 43 -102 43q-63 0 -103 -43q-33 -37 -41 -106.5t-8 -196.5z" />
<glyph unicode="7" d="M96 1118v340h547v-92l-389 -1366h-121l391 1356h-315v-238h-113z" />
<glyph unicode="8" d="M102 401q0 76 3.5 125t9.5 82t16 54.5t25 44.5q14 20 34.5 38.5t47.5 32.5q-53 31 -82 78q-10 18 -18.5 40t-13.5 49.5t-8 66.5t-3 92q0 66 4 113t13 82.5t23.5 60t36.5 47.5q68 68 179 68t178 -68q20 -23 35.5 -47.5t24.5 -60t13.5 -83t4.5 -112.5q0 -53 -2 -92 t-7.5 -66.5t-13.5 -49.5t-18 -40q-29 -47 -82 -78q27 -14 47 -32.5t35 -38.5q14 -23 24 -44.5t16.5 -54.5t8.5 -82t2 -125t-3 -129t-12.5 -93t-24.5 -68.5t-40 -55.5q-33 -35 -83 -53t-103 -18t-102.5 18t-82.5 53q-25 27 -41 55.5t-25 68.5t-12.5 93.5t-3.5 128.5zM217 403 q0 -61 2 -105t8 -76t16.5 -53.5t24.5 -39.5q37 -43 101 -43q63 0 100 43q14 16 24.5 37.5t16.5 53.5t8 77t2 106q0 70 -2 117t-8 78t-16.5 51.5t-24.5 36.5q-37 43 -100 43t-101 -43q-16 -16 -25.5 -36.5t-15.5 -51.5t-8 -78t-2 -117zM227 1102q0 -100 11.5 -154.5 t40.5 -83.5q33 -35 90 -35q59 0 92 35q29 29 39 83.5t10 154.5t-11.5 151.5t-35.5 79.5q-33 39 -94 39q-59 0 -93 -39q-25 -29 -37 -80t-12 -151z" />
<glyph unicode="9" d="M102 1028q0 82 3.5 140.5t12.5 99.5t23.5 70.5t36.5 56.5q35 41 85 60.5t108 19.5q123 0 190 -80q23 -29 37 -58.5t22.5 -71.5t11.5 -98.5t3 -138.5q0 -123 -14.5 -215t-45.5 -176l-233 -637h-117l236 627q-53 -43 -119 -43q-102 0 -166 73q-20 23 -33.5 48.5t-22.5 65.5 t-13.5 101.5t-4.5 155.5zM217 1028q0 -127 8 -197.5t41 -105.5q39 -43 103 -43q61 0 102 43q33 37 41 106.5t8 196.5t-8 195.5t-41 105.5q-41 43 -102 43q-63 0 -103 -43q-33 -37 -41 -105.5t-8 -195.5z" />
<glyph unicode=":" horiz-adv-x="464" d="M184 0v154h154v-154h-154zM184 694v156h154v-156h-154z" />
<glyph unicode=";" horiz-adv-x="464" d="M184 694v156h154v-156h-154zM190 158h142v-256l-142 -105v361z" />
<glyph unicode="&#x3c;" d="M70 530v101l600 348v-129l-469 -268l469 -269v-129z" />
<glyph unicode="=" horiz-adv-x="882" d="M100 350v109h684v-109h-684zM100 643v109h684v-109h-684z" />
<glyph unicode="&#x3e;" d="M70 184v129l469 269l-469 268v129l600 -348v-101z" />
<glyph unicode="?" horiz-adv-x="768" d="M117 1149q0 78 16.5 139.5t63.5 106.5q35 35 86 55t112 20q127 0 201 -75q41 -43 62.5 -102.5t21.5 -172.5q0 -72 -11.5 -124t-47.5 -111l-119 -191q-45 -70 -45 -151v-160h-115v174q0 47 14.5 89t36.5 79l119 190q35 53 44 99.5t9 107.5q0 84 -14 128t-43 73 q-41 45 -113 45q-37 0 -63.5 -11t-46.5 -32q-35 -35 -44.5 -82t-9.5 -94h-114zM324 0v154h153v-154h-153z" />
<glyph unicode="@" horiz-adv-x="1054" d="M113 211v954q0 80 22.5 131.5t57.5 85.5q35 35 86 55.5t116 20.5h252q66 0 117 -20.5t86 -55.5t57.5 -86t22.5 -131v-1165h-113v84q-10 -16 -26.5 -34.5t-30.5 -29.5q-53 -37 -121 -36q-53 0 -92 17t-72 52q-31 33 -47 81t-16 126v457q0 78 16 125t47 80q33 35 72 52 t92 17q41 0 67.5 -8t55.5 -25q12 -8 27.5 -24t25.5 -35v262q0 98 -50 148.5t-134 50.5h-219q-82 0 -133.5 -50t-51.5 -149v-954q0 -53 14.5 -88t41.5 -60l-80 -77q-53 45 -71.5 101t-18.5 128zM526 256q0 -86 43 -128t103 -42q59 0 101 42t42 128v463q0 86 -42 128t-101 42 t-102.5 -42t-43.5 -128v-463z" />
<glyph unicode="A" horiz-adv-x="776" d="M8 0l326 1458h112l320 -1458h-129l-80 399h-340l-78 -399h-131zM242 508h293l-148 733z" />
<glyph unicode="B" horiz-adv-x="851" d="M141 0v1458h262q90 0 147.5 -18.5t100.5 -65.5q47 -49 63.5 -113.5t16.5 -179.5q0 -78 -15.5 -144.5t-70.5 -121.5q-45 -45 -92 -57q55 -12 100 -58q59 -61 74.5 -138.5t15.5 -155.5q0 -135 -20.5 -205t-67.5 -117q-45 -45 -103 -64.5t-151 -19.5h-260zM262 109h144 q51 0 92 13t68.5 47t42 91.5t14.5 145.5q0 160 -56.5 228t-160.5 68h-144v-593zM262 809h144q98 0 151 61.5t53 208.5q0 80 -13 132.5t-40 83t-64.5 43t-86.5 12.5h-144v-541z" />
<glyph unicode="C" horiz-adv-x="817" d="M111 729q0 168 3 277.5t13 182.5t30.5 118t55.5 82q37 41 91 63.5t126 22.5q70 0 121 -20.5t88 -57.5q47 -47 69.5 -118t24.5 -155h-121q0 55 -12 106.5t-45 86.5q-23 23 -52.5 36t-72.5 13q-45 0 -75.5 -14.5t-53.5 -38.5q-23 -27 -36 -61.5t-21 -97t-10.5 -164 t-2.5 -261.5t2.5 -261t10.5 -163.5t21.5 -97.5t35.5 -62q23 -25 53.5 -39t75.5 -14q43 0 72.5 13.5t52.5 35.5q33 35 45 86.5t12 106.5h121q-2 -88 -25.5 -161t-76.5 -120q-37 -33 -86 -51t-115 -18q-72 0 -126 22.5t-91 63.5q-35 37 -55.5 82t-30.5 117.5t-13 182t-3 277.5 z" />
<glyph unicode="D" horiz-adv-x="868" d="M141 0v1458h299q72 0 126.5 -22.5t90.5 -61.5q35 -37 55.5 -80t31 -113.5t13.5 -178t3 -273.5t-3 -273.5t-13.5 -178t-31 -113.5t-55.5 -80q-37 -39 -91 -61.5t-126 -22.5h-299zM262 109h172q43 0 77 14t56 37q25 27 38 59.5t21.5 94t10.5 159.5t2 256q0 156 -2 255 t-10.5 160.5t-21.5 94.5t-38 59q-23 23 -56.5 37.5t-76.5 14.5h-172v-1241z" />
<glyph unicode="E" horiz-adv-x="745" d="M141 0v1458h508v-108h-387v-566h334v-108h-334v-567h387v-109h-508z" />
<glyph unicode="F" horiz-adv-x="735" d="M141 0v1458h508v-108h-387v-566h334v-108h-334v-676h-121z" />
<glyph unicode="G" horiz-adv-x="843" d="M111 729q0 168 3 277.5t13 182.5t30.5 118t55.5 82q37 41 91 63.5t126 22.5t123 -21.5t88 -58.5q47 -47 69.5 -117t22.5 -154h-121q0 43 -8 87t-27.5 78t-55.5 55.5t-91 21.5q-45 0 -75.5 -14.5t-53.5 -38.5q-23 -27 -36 -61.5t-21 -97t-10.5 -164t-2.5 -261.5t2.5 -261 t10.5 -163.5t21.5 -97.5t35.5 -62q23 -25 53.5 -39t75.5 -14q78 0 130 57.5t52 161.5v359h-182v102h303v-461q0 -82 -24.5 -143.5t-66.5 -102t-96 -61t-116 -20.5q-72 0 -126 22.5t-91 63.5q-35 37 -55.5 82t-30.5 117.5t-13 182t-3 277.5z" />
<glyph unicode="H" horiz-adv-x="884" d="M141 0v1458h121v-661h361v661h120v-1458h-120v686h-361v-686h-121z" />
<glyph unicode="I" horiz-adv-x="403" d="M141 0v1458h121v-1458h-121z" />
<glyph unicode="J" horiz-adv-x="679" d="M16 86l88 80q25 -35 62 -54.5t82 -19.5q78 0 132 55.5t54 165.5v1145h121v-1145q0 -160 -86 -245q-43 -43 -99.5 -63.5t-121.5 -20.5q-145 0 -232 102z" />
<glyph unicode="K" horiz-adv-x="837" d="M141 0v1458h121v-792l387 792h129l-299 -602l338 -856h-131l-283 721l-141 -279v-442h-121z" />
<glyph unicode="L" horiz-adv-x="694" d="M141 0v1458h121v-1349h387v-109h-508z" />
<glyph unicode="M" horiz-adv-x="1140" d="M141 0v1458h121l307 -858l310 858h120v-1458h-120v1174l-267 -771h-88l-262 746v-1149h-121z" />
<glyph unicode="N" horiz-adv-x="929" d="M141 0v1458h121l408 -1136l-2 1136h120v-1458h-118l-408 1137v-1137h-121z" />
<glyph unicode="O" horiz-adv-x="862" d="M111 729q0 168 3 277.5t13 182.5t30.5 118t55.5 82q37 41 91 63.5t126 22.5t127 -22.5t92 -63.5q35 -37 55.5 -82t30.5 -118t13.5 -182.5t3.5 -277.5t-3.5 -277.5t-13.5 -182t-30.5 -118t-55.5 -81.5q-37 -41 -92 -63.5t-127 -22.5t-126 22.5t-91 63.5q-35 37 -55.5 82 t-30.5 117.5t-13 182t-3 277.5zM231 729q0 -160 2.5 -261t10.5 -163.5t21.5 -97.5t35.5 -62q23 -25 53.5 -39t75.5 -14t77 14.5t54 38.5q23 27 36 62t21.5 97.5t10.5 163.5t2 261t-2 261.5t-10.5 164t-21.5 97t-36 61.5q-47 53 -131 53q-45 0 -75.5 -14.5t-53.5 -38.5 q-23 -27 -36 -61.5t-21 -97t-10.5 -164t-2.5 -261.5z" />
<glyph unicode="P" horiz-adv-x="839" d="M141 0v1458h287q66 0 123 -15.5t100 -59.5t67.5 -122.5t24.5 -207.5q0 -115 -20.5 -194t-60 -126t-98 -67.5t-136.5 -20.5h-166v-645h-121zM262 754h170q109 0 150 77t41 220t-41 221t-150 78h-170v-596z" />
<glyph unicode="Q" horiz-adv-x="862" d="M111 729q0 168 3 277.5t13 182.5t30.5 118t55.5 82q37 41 91 63.5t126 22.5t127 -22.5t92 -63.5q35 -37 55.5 -82t30.5 -118t13.5 -182.5t3.5 -277.5q0 -143 -2 -243.5t-8.5 -171t-19.5 -116.5t-36 -81l113 -97l-62 -73l-114 98q-74 -61 -193 -61q-72 0 -126 22.5 t-91 63.5q-35 37 -55.5 82t-30.5 117.5t-13 182t-3 277.5zM231 729q0 -162 2.5 -263t9.5 -163.5t21.5 -97.5t36.5 -62q41 -51 129 -51q63 0 102 29l-114 94l61 74l111 -92q12 27 20 64.5t13.5 97t6.5 149.5t1 221q0 162 -2 263.5t-9.5 164t-21.5 97t-37 61.5q-41 51 -131 51 q-88 0 -129 -51q-23 -27 -37 -61.5t-21 -97t-9.5 -164t-2.5 -263.5z" />
<glyph unicode="R" horiz-adv-x="884" d="M141 0v1458h287q66 0 123 -15.5t100 -59.5t67.5 -122.5t24.5 -205.5q0 -170 -44 -257t-136 -122l228 -676h-129l-211 653h-189v-653h-121zM262 762h170q109 0 150 76t41 217t-41 218t-150 77h-170v-588z" />
<glyph unicode="S" horiz-adv-x="811" d="M84 365h121q0 -86 11 -134.5t46 -83.5q49 -49 137 -49q51 0 84 13.5t56 35.5q35 39 46 91.5t11 138.5q0 68 -6 116t-23.5 82.5t-47.5 58t-77 42.5l-155 63q-55 23 -93 52.5t-59.5 71.5t-31 100.5t-9.5 140.5q0 94 24.5 168t76.5 121q81 77 210 77h3q139 0 219 -79 q53 -53 70.5 -120t17.5 -163h-121q0 70 -11.5 117t-43.5 84q-23 25 -54.5 39t-78.5 14q-43 0 -74 -12.5t-53 -34.5q-35 -35 -49.5 -88t-14.5 -121q0 -63 6 -105.5t22.5 -73t48.5 -52t81 -41.5l155 -64q59 -25 96.5 -58.5t57.5 -80.5t27.5 -108.5t7.5 -141.5 q0 -117 -20.5 -191.5t-69.5 -123.5q-37 -37 -93.5 -57.5t-134.5 -20.5q-152 0 -229 78q-25 25 -41 52t-26.5 62t-14.5 80t-4 105z" />
<glyph unicode="T" horiz-adv-x="698" d="M45 1350v108h608v-108h-243v-1350h-121v1350h-244z" />
<glyph unicode="U" horiz-adv-x="854" d="M125 303v1155h121v-1165q0 -94 53 -147.5t129 -53.5t128 53.5t52 147.5v1165h121v-1155q0 -78 -22.5 -136t-63.5 -99q-88 -84 -215 -84t-215 84q-41 41 -64.5 99t-23.5 136z" />
<glyph unicode="V" horiz-adv-x="757" d="M8 1458h133l238 -1241l237 1241h134l-312 -1458h-119z" />
<glyph unicode="W" horiz-adv-x="1202" d="M8 1458h133l156 -1241l235 1241h138l239 -1241l154 1241h131l-221 -1458h-127l-244 1243l-242 -1243h-127z" />
<glyph unicode="X" horiz-adv-x="761" d="M39 0l270 760l-248 698h134l186 -577l188 577h131l-254 -698l277 -760h-131l-211 631l-209 -631h-133z" />
<glyph unicode="Y" horiz-adv-x="645" d="M6 1458h133l183 -667l184 667h133l-256 -848v-610h-121v610z" />
<glyph unicode="Z" horiz-adv-x="663" d="M61 0v94l416 1256h-387v108h512v-94l-414 -1255h414v-109h-541z" />
<glyph unicode="[" horiz-adv-x="483" d="M127 -152v1762h295v-99h-180v-1564h180v-99h-295z" />
<glyph unicode="\" horiz-adv-x="503" d="M4 1610h117l379 -1762h-117z" />
<glyph unicode="]" horiz-adv-x="483" d="M61 -53h181v1564h-181v99h295v-1762h-295v99z" />
<glyph unicode="^" horiz-adv-x="917" d="M141 899l265 571h106l262 -571h-117l-198 453l-199 -453h-119z" />
<glyph unicode="_" horiz-adv-x="882" d="M0 -184h883v-90h-883v90z" />
<glyph unicode="`" horiz-adv-x="724" d="M166 1466h119l135 -266h-101z" />
<glyph unicode="a" horiz-adv-x="720" d="M76 289q0 74 21.5 134t66.5 101q39 35 86 52.5t119 17.5h118v186q0 86 -35.5 132t-107.5 46q-31 0 -54.5 -11t-39.5 -27q-25 -27 -36 -60t-11 -86h-115q0 59 15.5 114.5t60.5 100.5q33 33 78 51.5t102 18.5q125 0 186 -66q35 -37 53.5 -88t18.5 -129v-776h-110v94 q-10 -23 -26.5 -41t-31.5 -28q-25 -18 -53.5 -29.5t-71.5 -11.5q-98 0 -166 69q-29 31 -48 90.5t-19 145.5zM190 291q0 -94 35 -149.5t111 -55.5q70 0 110.5 53.5t40.5 134.5v230h-114q-41 0 -71 -10.5t-56 -34.5q-27 -27 -41.5 -71t-14.5 -97z" />
<glyph unicode="b" horiz-adv-x="747" d="M127 0v1458h115v-493q10 16 25.5 33.5t31.5 27.5q51 33 119 33q53 0 93 -19.5t69 -54.5q47 -55 62 -162.5t15 -302.5t-15 -301t-62 -162q-65 -73 -159 -73h-3q-68 0 -119 36q-12 10 -31.5 29t-27.5 35v-84h-113zM242 268q0 -96 49 -145q39 -37 98 -37q31 0 57.5 13.5 t42.5 33.5q35 43 44.5 131t9.5 256t-9.5 257t-44.5 132q-16 20 -42.5 33.5t-57.5 13.5q-55 0 -98 -38q-23 -23 -36 -58t-13 -86v-506z" />
<glyph unicode="c" horiz-adv-x="696" d="M92 520q0 184 15.5 291t62.5 164q35 41 84 62.5t108 21.5t104.5 -14.5t80.5 -49.5q47 -47 59 -106.5t15 -122.5h-113q0 39 -6 78t-35 69q-20 23 -44 33t-58 10q-35 0 -63 -13t-44 -34q-35 -43 -43 -132t-8 -257t8 -256t43 -131q16 -20 44 -33.5t63 -13.5q59 0 100 41 q29 29 36 64.5t7 82.5h113q-2 -74 -18.5 -128t-55.5 -95q-65 -67 -182 -67h-3q-59 0 -108 20.5t-84 61.5q-47 57 -62.5 163.5t-15.5 290.5z" />
<glyph unicode="d" horiz-adv-x="747" d="M92 520q0 195 15.5 302.5t62.5 162.5q29 35 69 54.5t93 19.5q68 0 119 -33q16 -10 30.5 -27.5t24.5 -33.5v493h115v-1458h-113v84q-8 -16 -26.5 -34.5t-30.5 -29.5q-52 -36 -116 -36h-3q-98 0 -162 73q-47 55 -62.5 162t-15.5 301zM207 520q0 -168 8 -256t43 -131 q16 -20 43 -33.5t57 -13.5q59 0 101 37q47 47 47 145v506q0 96 -47 144q-42 38 -98 38h-3q-31 0 -57.5 -13t-42.5 -34q-35 -43 -43 -132t-8 -257z" />
<glyph unicode="e" horiz-adv-x="714" d="M92 520q0 188 15.5 298t68.5 165q70 76 186 76q117 0 187 -76q55 -59 68.5 -175t13.5 -304h-424q0 -160 9 -245t44 -126q16 -20 43 -33.5t62 -13.5q66 0 104 41q47 51 47 147h113q-2 -76 -18.5 -127t-57.5 -92q-35 -35 -85 -53t-103 -18q-119 0 -189 75q-53 55 -68.5 164 t-15.5 297zM207 596h309q-2 133 -11 205.5t-40 107.5q-16 20 -42 33.5t-61 13.5t-61.5 -13t-42.5 -34q-31 -35 -40 -107.5t-11 -205.5z" />
<glyph unicode="f" horiz-adv-x="485" d="M33 944v90h127v150q0 139 78 211q45 41 100 54t115 13v-104q-178 0 -179 -174v-150h179v-90h-179v-944h-114v944h-127z" />
<glyph unicode="g" horiz-adv-x="747" d="M92 532q0 195 16.5 297.5t63.5 155.5q29 33 66.5 53.5t93.5 20.5q68 0 121 -37q12 -10 29.5 -27.5t25.5 -33.5v81h113v-1073q0 -66 -4.5 -114t-13.5 -84.5t-23.5 -63t-36.5 -51.5q-33 -35 -82 -55.5t-105 -20.5q-119 0 -188 70q-41 41 -56.5 94t-15.5 125h113 q0 -47 8 -84t37 -66q38 -38 97 -38h3q35 0 60.5 13t42.5 32q29 31 39 87t10 154v131q-8 -16 -24.5 -33.5t-30.5 -27.5q-45 -31 -119 -31q-96 0 -160 72q-47 53 -63.5 156.5t-16.5 297.5zM207 530q0 -162 8 -248.5t43 -127.5q16 -20 42 -34t58 -14q61 0 101 39q47 47 47 144 v485q0 96 -47 144q-42 38 -98 38h-3q-33 0 -58.5 -13t-41.5 -34q-35 -41 -43 -129t-8 -250z" />
<glyph unicode="h" horiz-adv-x="763" d="M127 0v1458h115v-497q8 16 26.5 33.5t30.5 27.5q53 37 119 37q53 0 92 -18.5t72 -53.5q31 -33 47 -80t16 -125v-782h-115v784q0 86 -42 128t-101 42t-102 -42t-43 -128v-784h-115z" />
<glyph unicode="i" horiz-adv-x="370" d="M111 1282v148h147v-148h-147zM127 0v1042h115v-1042h-115z" />
<glyph unicode="j" horiz-adv-x="370" d="M-43 -313q78 0 124 38.5t46 137.5v1179h115v-1181q0 -78 -20.5 -127t-57.5 -84q-43 -41 -95.5 -53.5t-111.5 -12.5v103zM111 1282v148h147v-148h-147z" />
<glyph unicode="k" horiz-adv-x="763" d="M127 0v1458h115v-962l329 546h125l-245 -399l280 -643h-127l-225 543l-137 -217v-326h-115z" />
<glyph unicode="l" horiz-adv-x="434" d="M117 279v1179h114v-1179q0 -86 42 -131.5t128 -45.5v-102q-59 0 -111 12.5t-95 53.5q-37 35 -57.5 85t-20.5 128z" />
<glyph unicode="m" horiz-adv-x="1167" d="M127 0v1042h113v-84q10 16 27.5 35t31.5 29q53 37 119 37q59 0 111.5 -32t82.5 -79q14 20 33 41t39 33q27 16 58.5 26.5t66.5 10.5q66 0 104.5 -18.5t71.5 -53.5q31 -33 47.5 -80t16.5 -125v-782h-115v784q0 86 -42 128t-101 42t-102.5 -42t-43.5 -128v-784h-115v784 q0 86 -42 128t-101 42t-102 -42t-43 -128v-784h-115z" />
<glyph unicode="n" horiz-adv-x="763" d="M127 0v1042h113v-84q10 16 27.5 35t31.5 29q53 37 119 37q53 0 92 -18.5t72 -53.5q31 -33 47 -80t16 -125v-782h-115v784q0 86 -42 128t-101 42t-102 -42t-43 -128v-784h-115z" />
<glyph unicode="o" horiz-adv-x="722" d="M92 520q0 184 15.5 291t62.5 164q68 84 192 84q125 0 193 -84q47 -57 62.5 -164t15.5 -291t-15.5 -290.5t-62.5 -163.5q-68 -82 -193 -82t-192 82q-47 57 -62.5 163.5t-15.5 290.5zM207 520q0 -168 8 -256t43 -131q16 -20 43 -33.5t61 -13.5q35 0 61 13.5t42 33.5 q35 43 44 131t9 256t-9 257t-44 132q-16 20 -42 33.5t-61 13.5t-61.5 -13t-42.5 -34q-35 -43 -43 -132t-8 -257z" />
<glyph unicode="p" horiz-adv-x="747" d="M127 -416v1458h113v-84q8 16 27.5 35t31.5 29q51 37 119 37q96 0 162 -74q47 -55 62 -162.5t15 -302.5t-15 -301t-62 -162q-29 -35 -69 -54t-93 -19q-68 0 -119 32q-16 10 -31.5 27.5t-25.5 34.5v-494h-115zM242 268q0 -96 49 -145q39 -37 98 -37q31 0 57.5 13.5 t42.5 33.5q35 43 44.5 131t9.5 256t-9.5 257t-44.5 132q-16 20 -42.5 33.5t-57.5 13.5q-55 0 -98 -38q-23 -23 -36 -58t-13 -86v-506z" />
<glyph unicode="q" horiz-adv-x="747" d="M92 520q0 195 15.5 302.5t62.5 162.5q63 74 162 74q66 0 119 -37q12 -10 30.5 -28.5t26.5 -35.5v84h113v-1458h-115v494q-10 -16 -24.5 -33.5t-30.5 -28.5q-49 -32 -115 -32h-4q-53 0 -93 19.5t-69 53.5q-47 55 -62.5 162t-15.5 301zM207 520q0 -168 8 -256t43 -131 q16 -20 43 -33.5t57 -13.5q59 0 101 37q47 47 47 145v506q0 96 -47 144q-42 38 -98 38h-3q-31 0 -57.5 -13t-42.5 -34q-35 -43 -43 -132t-8 -257z" />
<glyph unicode="r" horiz-adv-x="501" d="M127 0v1042h113v-110q8 16 23.5 35.5t27.5 29.5q35 33 80 47.5t98 14.5v-109h-25q-92 0 -147 -54t-55 -148v-748h-115z" />
<glyph unicode="s" horiz-adv-x="688" d="M68 283h114q0 -49 12.5 -87t41.5 -67q43 -43 104 -43q72 0 119 47t47 129q0 68 -29 113q-33 51 -104 90l-131 72q-49 29 -84 61.5t-52 60.5q-28 53 -28 127v5q0 59 22.5 109t59.5 87q72 72 186 72q117 0 186 -70q76 -76 76 -225h-114q0 59 -10.5 92t-34.5 59 q-23 23 -48.5 32t-54.5 9q-70 0 -108 -38q-25 -23 -35 -57t-10 -66q0 -55 20 -90q10 -20 35.5 -39t60.5 -39l129 -74q100 -55 142 -123q23 -35 32 -77t9 -87q0 -61 -23 -113.5t-59 -89.5q-79 -79 -196 -79h-3q-117 0 -190 73q-45 47 -63.5 103.5t-18.5 122.5z" />
<glyph unicode="t" horiz-adv-x="501" d="M33 944v90h127v314h114v-314h179v-90h-179v-665q0 -94 47.5 -135.5t139.5 -41.5v-102q-63 0 -119.5 11.5t-103.5 54.5q-78 72 -78 213v665h-127z" />
<glyph unicode="u" horiz-adv-x="763" d="M119 260v782h114v-784q0 -86 42 -128t102 -42q59 0 102 42t43 128v784h115v-1042h-113v84q-10 -16 -27.5 -34.5t-31.5 -29.5q-52 -36 -116 -36h-3q-53 0 -92 17t-72 52q-31 33 -47 81t-16 126z" />
<glyph unicode="v" horiz-adv-x="624" d="M8 1042h127l178 -862l179 862h124l-243 -1042h-121z" />
<glyph unicode="w" horiz-adv-x="970" d="M8 1042h133l129 -862l152 862h115l159 -862l133 862h134l-203 -1042h-123l-158 852l-149 -852h-123z" />
<glyph unicode="x" horiz-adv-x="657" d="M35 0l229 530l-217 512h127l156 -413l153 413h127l-221 -512l234 -530h-127l-166 430l-168 -430h-127z" />
<glyph unicode="y" horiz-adv-x="630" d="M8 1042h127l178 -860l179 860h124l-294 -1245q-29 -121 -107 -167t-197 -46v103q86 0 130.5 33.5t60.5 99.5l47 184z" />
<glyph unicode="z" horiz-adv-x="565" d="M45 0v90l352 850h-331v102h456v-90l-352 -850h352v-102h-477z" />
<glyph unicode="{" horiz-adv-x="587" d="M61 678v102h35q59 0 99.5 42t40.5 124v397q0 72 18 119t51 80q31 31 77 49.5t97 18.5h49v-103h-36q-59 0 -100.5 -42t-41.5 -124v-391q0 -70 -16.5 -113.5t-44.5 -72.5q-12 -12 -26.5 -20.5t-29.5 -14.5q31 -10 56 -35q29 -29 45 -72.5t16 -113.5v-391q0 -82 41 -124 t101 -42h36v-103h-49q-51 0 -97 18.5t-77 49.5q-33 33 -51 80t-18 119v397q0 82 -40 124t-100 42h-35z" />
<glyph unicode="|" horiz-adv-x="514" d="M199 -152v1762h114v-1762h-114z" />
<glyph unicode="}" horiz-adv-x="587" d="M61 -49h35q59 0 100.5 42t41.5 124v391q0 70 17 114t46 72q12 12 25.5 20.5t27.5 14.5q-29 8 -53 35q-29 29 -46 73t-17 113v391q0 82 -41 124t-101 42h-35v103h48q51 0 97 -18.5t77 -49.5q33 -33 51 -80t18 -119v-397q0 -82 40 -124t100 -42h36v-102h-36 q-59 0 -99.5 -42t-40.5 -124v-397q0 -72 -18.5 -119t-50.5 -80q-31 -31 -77 -49.5t-97 -18.5h-48v103z" />
<glyph unicode="~" horiz-adv-x="882" d="M96 557q33 33 58.5 54.5t49 33.5t45 17.5t48.5 5.5q43 0 83 -16.5t83 -35.5q33 -16 61.5 -26t61.5 -10q35 0 61.5 12t71.5 57l69 -69q-66 -66 -108.5 -87.5t-93.5 -21.5q-43 0 -83 15.5t-83 33.5q-33 16 -61.5 27.5t-61.5 11.5q-35 0 -60.5 -13.5t-70.5 -58.5z" />
<glyph unicode="&#xa1;" horiz-adv-x="464" d="M127 889v153h154v-153h-154zM145 -416v1075h115v-1075h-115z" />
<glyph unicode="&#xa2;" horiz-adv-x="700" d="M94 731q0 176 15.5 278.5t62.5 155.5q57 63 147 76v217h93v-215q84 -10 137 -59q47 -45 59.5 -101.5t14.5 -115.5h-113q0 37 -5 73.5t-34 65.5q-23 25 -59 35v-819q33 10 55 32q29 29 36 63t7 79h113q-2 -72 -17.5 -123t-54.5 -90q-53 -51 -139 -64v-219h-93v221 q-90 12 -147 76q-47 53 -62.5 155.5t-15.5 278.5zM209 731q0 -160 9 -245t44 -126q23 -25 57 -36v815q-35 -12 -57 -37q-35 -41 -44 -126t-9 -245z" />
<glyph unicode="&#xa3;" horiz-adv-x="804" d="M72 719v90h131v342q0 80 24.5 140.5t67.5 101.5t98.5 61.5t116.5 20.5q68 0 128 -26t103 -77l-86 -78q-25 31 -61.5 51.5t-83.5 20.5q-78 0 -132 -55.5t-54 -153.5v-348h186v-90h-186v-610h417v-109h-538v719h-131z" />
<glyph unicode="&#xa4;" horiz-adv-x="1292" d="M250 231l117 117q-33 43 -51.5 95.5t-18.5 111.5t18.5 112.5t51.5 94.5l-117 115l74 71l114 -114q90 68 207 67q117 0 207 -67l117 114l71 -71l-116 -115q33 -41 51 -94.5t18 -112.5t-18.5 -111.5t-50.5 -95.5l116 -117l-71 -71l-117 116q-43 -33 -95 -51t-112 -18 q-59 0 -111.5 18.5t-95.5 50.5l-114 -116zM403 555q0 -51 18.5 -95t51.5 -77t77 -52.5t95 -19.5t95 19.5t77 52.5t52.5 77t19.5 95t-19.5 95t-52.5 77t-77 51.5t-95 18.5t-95 -18.5t-77 -51.5t-51.5 -77t-18.5 -95z" />
<glyph unicode="&#xa5;" horiz-adv-x="645" d="M10 1458h129l183 -667l184 667h129l-189 -633h105v-90h-131l-39 -125v-82h170v-90h-170v-438h-119v438h-170v90h170v82l-35 125h-135v90h107z" />
<glyph unicode="&#xa6;" horiz-adv-x="514" d="M199 -150v713h114v-713h-114zM199 895v713h114v-713h-114z" />
<glyph unicode="&#xa7;" horiz-adv-x="796" d="M121 555q0 70 3 119t12 85t25.5 62.5t41.5 50.5q43 41 112 56q-43 25 -80.5 55.5t-60.5 69.5q-16 29 -24.5 63.5t-8.5 81.5q0 117 78 191q74 70 184 69q57 0 99.5 -15.5t77.5 -47.5q41 -37 60 -91.5t19 -113.5h-114q0 35 -10.5 67.5t-34.5 59.5q-20 23 -45 31t-52 8 q-63 0 -100 -37q-23 -23 -34 -52.5t-11 -62.5q0 -70 23 -104q12 -20 36.5 -43t53.5 -39l135 -74q23 -12 48.5 -28.5t41.5 -32.5q27 -27 43 -55.5t24.5 -65.5t10.5 -87t2 -120t-4 -120t-13.5 -86t-25 -62.5t-39.5 -48.5q-20 -18 -49 -34t-64 -22q43 -27 77 -51.5t60 -67.5 q18 -31 28.5 -73.5t10.5 -83.5q0 -123 -73 -199q-76 -76 -193 -76q-55 0 -102 19.5t-82 54.5q-41 41 -58.5 93t-17.5 106h115q0 -76 47 -129q20 -23 46 -32t52 -9q66 0 109 43q41 41 41 125q0 31 -7.5 61.5t-19.5 50.5q-18 29 -44 48.5t-56 35.5l-135 76q-20 10 -40 23.5 t-36 29.5q-27 27 -43.5 56.5t-24.5 68.5t-11 88t-3 115zM236 555q0 -111 10 -167t45 -91q43 -43 106 -43q66 0 111 45q35 35 44 90t9 166q0 55 -2 96t-7 71t-15.5 51.5t-28.5 39.5q-45 45 -111 45q-63 0 -106 -43q-16 -16 -26.5 -35.5t-16.5 -49.5t-9 -73t-3 -102z" />
<glyph unicode="&#xa8;" horiz-adv-x="724" d="M158 1241v129h129v-129h-129zM438 1241v129h129v-129h-129z" />
<glyph unicode="&#xa9;" horiz-adv-x="1765" d="M141 729q0 154 58.5 289t159 235.5t235.5 158.5t289 58t289 -58t235 -158.5t158.5 -235.5t58.5 -289t-58.5 -289t-158.5 -235.5t-235.5 -158.5t-288.5 -58q-154 0 -289 58t-235.5 158.5t-159 235.5t-58.5 289zM233 729q0 -135 51.5 -255t139.5 -209t206 -141t253 -52 t252.5 52t204.5 141t138.5 209t51.5 255t-51.5 255t-138.5 209t-204.5 141t-252.5 52t-253 -52t-206 -141t-139.5 -209t-51.5 -255zM682 729q0 145 10 229t49 129q23 29 59 45.5t83 16.5q84 0 137 -53q55 -57 55 -176h-86q0 37 -5 65.5t-26 50.5q-29 33 -75 33 q-47 0 -76 -35q-27 -35 -33 -105.5t-6 -199.5t6 -199.5t33 -105.5q29 -35 76 -35q45 0 73 31q20 23 26.5 51.5t6.5 65.5h86q0 -119 -55 -177q-51 -51 -137 -51q-47 0 -83 16.5t-59 45.5q-39 45 -49 129t-10 229z" />
<glyph unicode="&#xaa;" horiz-adv-x="608" d="M68 879q0 59 21.5 104t57.5 78q57 51 164 51h95v135q0 57 -28 96t-87 39q-51 0 -80 -32q-23 -25 -29 -54.5t-6 -60.5h-96q0 49 12 94t49 82q55 55 150 55q96 0 151 -57q29 -29 45.5 -69t16.5 -99v-586h-92v68q-10 -16 -23.5 -30.5t-23.5 -20.5q-18 -12 -43 -20.5 t-60 -8.5q-82 0 -137 57q-25 27 -41 70t-16 109zM166 881q0 -59 25.5 -106.5t93.5 -47.5q53 0 87 45t34 111v153h-93q-66 0 -98 -30q-49 -43 -49 -125z" />
<glyph unicode="&#xab;" horiz-adv-x="759" d="M59 549l277 430v-197l-154 -233l154 -236v-194zM369 549l278 430v-197l-155 -233l155 -236v-194z" />
<glyph unicode="&#xac;" horiz-adv-x="882" d="M102 520v111h678v-322h-108v211h-570z" />
<glyph unicode="&#xad;" horiz-adv-x="616" d="M113 514v109h391v-109h-391z" />
<glyph unicode="&#xae;" horiz-adv-x="1765" d="M141 729q0 154 58.5 289t159 235.5t235.5 158.5t289 58t289 -58t235 -158.5t158.5 -235.5t58.5 -289t-58.5 -289t-158.5 -235.5t-235.5 -158.5t-288.5 -58q-154 0 -289 58t-235.5 158.5t-159 235.5t-58.5 289zM233 729q0 -135 51.5 -255t139.5 -209t206 -141t253 -52 t252.5 52t204.5 141t138.5 209t51.5 255t-51.5 255t-138.5 209t-204.5 141t-252.5 52t-253 -52t-206 -141t-139.5 -209t-51.5 -255zM702 322v817h201q80 0 131 -47q33 -33 43 -76t10 -109q0 -74 -10 -112.5t-43 -69.5q-14 -14 -43 -29l121 -374h-92l-111 356h-118v-356h-89z M791 758h114q39 0 66 26q20 23 25 49.5t5 73.5t-5 74t-25 49q-27 27 -66 27h-114v-299z" />
<glyph unicode="&#xaf;" horiz-adv-x="724" d="M145 1255v91h435v-91h-435z" />
<glyph unicode="&#xb0;" horiz-adv-x="782" d="M115 1198q0 57 21.5 107.5t59 88.5t88 59.5t107.5 21.5t108.5 -21.5t89.5 -59.5t59.5 -88.5t21.5 -107.5t-21.5 -108.5t-59.5 -89t-89 -59t-109 -21.5q-57 0 -107.5 21.5t-88 59t-59 89t-21.5 108.5zM215 1198q0 -78 50 -129t126 -51t126 51t50 129t-50 128t-126 50 t-126 -50t-50 -128z" />
<glyph unicode="&#xb1;" horiz-adv-x="882" d="M100 74v108h684v-108h-684zM100 586v108h287v289h109v-289h288v-108h-288v-289h-109v289h-287z" />
<glyph unicode="&#xb2;" horiz-adv-x="651" d="M115 1212v35q0 59 12 98t43 68q59 55 154 55q51 0 84.5 -12t64.5 -37q61 -49 62 -151q0 -53 -14.5 -101.5t-47.5 -99.5l-252 -412h314v-71h-416v69l278 453q25 41 36 76t11 86q0 55 -31.5 89t-88.5 34q-63 0 -91 -37t-28 -105v-37h-90z" />
<glyph unicode="&#xb3;" horiz-adv-x="651" d="M102 803v26h93v-26q0 -53 7 -79t25 -42q31 -31 84 -31q55 0 86 31q18 20 28.5 52t10.5 85q0 57 -8 88t-25 51q-33 39 -92 39h-59v78h59q51 0 82 29q29 27 33 64.5t4 72.5t-7 67.5t-30 55.5q-31 27 -82 27q-55 0 -86 -31q-16 -16 -23 -46t-7 -65v-26h-91v24q0 66 13.5 104 t40.5 62q29 27 64.5 41t88.5 14t90 -14t62 -39q57 -57 57 -172q0 -53 -7 -86t-30 -61q-33 -41 -80 -60q55 -16 89 -65q18 -27 26 -63t8 -91q0 -76 -13 -115.5t-48 -74.5q-27 -25 -67 -39.5t-87 -14.5q-100 0 -157 56q-27 25 -39.5 61.5t-12.5 112.5z" />
<glyph unicode="&#xb4;" horiz-adv-x="724" d="M307 1200l133 266h119l-151 -266h-101z" />
<glyph unicode="&#xb6;" horiz-adv-x="1101" d="M94 1042q0 223 77 319.5t212 96.5h590v-1876h-115v1770h-246v-1770h-114v1047h-115q-68 0 -121 22.5t-91 71.5t-57.5 128t-19.5 191z" />
<glyph unicode="&#xb7;" horiz-adv-x="530" d="M139 502v252h252v-252h-252z" />
<glyph unicode="&#xb8;" horiz-adv-x="724" d="M225 -348l109 272h92l-92 -272h-109z" />
<glyph unicode="&#xb9;" horiz-adv-x="651" d="M156 1262v98l141 98h88v-874h-88v776z" />
<glyph unicode="&#xba;" horiz-adv-x="606" d="M86 1055q0 141 12.5 223t51.5 125q53 61 153 61t154 -61q39 -43 51 -125t12 -223t-12 -223t-51 -125q-55 -63 -154 -64q-98 0 -153 64q-39 43 -51.5 124.5t-12.5 223.5zM182 1055q0 -119 6.5 -189.5t34.5 -103.5q29 -33 80 -33q49 0 78 33t36 103.5t7 189.5t-7 188.5 t-36 102.5t-78 32q-51 0 -80 -32q-29 -33 -35 -102.5t-6 -188.5z" />
<glyph unicode="&#xbb;" horiz-adv-x="759" d="M113 119v194l155 236l-155 233v197l278 -430zM422 119v194l156 236l-156 233v197l278 -430z" />
<glyph unicode="&#xbc;" horiz-adv-x="1640" d="M156 1262v98l141 98h88v-874h-90v776zM483 0l506 1458h96l-505 -1458h-97zM1049 131v78l256 665h90l-254 -665h213v211h88v-211h63v-78h-63v-131h-88v131h-305z" />
<glyph unicode="&#xbd;" horiz-adv-x="1640" d="M156 1262v98l141 98h88v-874h-90v776zM483 0l506 1458h96l-505 -1458h-97zM1106 629v35q0 59 12 98t43 67q59 55 154 56q51 0 85 -12.5t64 -36.5q61 -49 62 -152q0 -53 -14.5 -101t-47.5 -100l-254 -411h316v-72h-418v70l281 452q25 41 36 76t11 86q0 55 -32 89t-89 34 q-63 0 -91 -37t-28 -104v-37h-90z" />
<glyph unicode="&#xbe;" horiz-adv-x="1640" d="M102 803v26h93v-26q0 -53 7 -79t25 -42q31 -31 84 -31q55 0 86 31q18 20 28.5 52t10.5 85q0 57 -8 88t-25 51q-33 39 -92 39h-59v78h59q51 0 82 29q29 27 33 64.5t4 72.5t-7 67.5t-30 55.5q-31 27 -82 27q-55 0 -86 -31q-16 -16 -23 -46t-7 -65v-26h-91v24q0 66 13.5 104 t40.5 62q29 27 64.5 41t88.5 14t90 -14t62 -39q57 -57 57 -172q0 -53 -7 -86t-30 -61q-33 -41 -80 -60q55 -16 89 -65q18 -27 26 -63t8 -91q0 -76 -13 -115.5t-48 -74.5q-27 -25 -67 -39.5t-87 -14.5q-100 0 -157 56q-27 25 -39.5 61.5t-12.5 112.5zM483 0l506 1458h96 l-505 -1458h-97zM1049 131v78l256 665h90l-254 -665h211v211h90v-211h63v-78h-63v-131h-90v131h-303z" />
<glyph unicode="&#xbf;" horiz-adv-x="768" d="M88 -78q0 72 11.5 124t47.5 112l119 190q23 35 33 73t10 79v159h115v-174q0 -92 -49 -170l-119 -188q-35 -53 -44 -99t-9 -108q0 -84 14 -128t43 -73q41 -45 113 -45q37 0 62.5 11.5t45.5 31.5q35 35 44.5 81t9.5 93h114q0 -78 -16.5 -138t-63.5 -105q-35 -35 -85 -55.5 t-111 -20.5q-129 0 -203 76q-20 20 -35.5 44.5t-26 56.5t-15.5 74t-5 99zM291 889v153h153v-153h-153z" />
<glyph unicode="&#xc0;" horiz-adv-x="776" d="M8 0l326 1458h112l320 -1458h-129l-80 399h-340l-78 -399h-131zM193 1831h118l135 -266h-100zM242 508h293l-148 733z" />
<glyph unicode="&#xc1;" horiz-adv-x="776" d="M8 0l326 1458h112l320 -1458h-129l-80 399h-340l-78 -399h-131zM242 508h293l-148 733zM334 1565l133 266h119l-152 -266h-100z" />
<glyph unicode="&#xc2;" horiz-adv-x="776" d="M8 0l326 1458h112l320 -1458h-129l-80 399h-340l-78 -399h-131zM162 1565l176 266h102l178 -266h-106l-123 188l-123 -188h-104zM242 508h293l-148 733z" />
<glyph unicode="&#xc3;" horiz-adv-x="776" d="M8 0l326 1458h112l320 -1458h-129l-80 399h-340l-78 -399h-131zM147 1665q51 51 84 64.5t62 13.5q35 0 58.5 -8.5t51.5 -26.5q23 -14 42.5 -23.5t41.5 -9.5q16 0 36 8.5t52 40.5l60 -59q-53 -53 -85 -65.5t-61 -12.5q-33 0 -57 9.5t-53 25.5q-23 12 -42.5 22.5 t-41.5 10.5q-18 0 -36.5 -7.5t-53.5 -41.5zM242 508h293l-148 733z" />
<glyph unicode="&#xc4;" horiz-adv-x="776" d="M8 0l326 1458h112l320 -1458h-129l-80 399h-340l-78 -399h-131zM184 1606v129h129v-129h-129zM242 508h293l-148 733zM465 1606v129h129v-129h-129z" />
<glyph unicode="&#xc5;" horiz-adv-x="776" d="M8 0l326 1458h112l320 -1458h-129l-80 399h-340l-78 -399h-131zM203 1726q0 78 54 131.5t132 53.5t132 -53.5t54 -131.5t-54 -132t-132 -54t-132 54.5t-54 131.5zM242 508h293l-148 733zM283 1726q0 -45 30.5 -76.5t75.5 -31.5t77 31.5t32 76.5t-32 76t-77 31 t-75.5 -30.5t-30.5 -76.5z" />
<glyph unicode="&#xc6;" horiz-adv-x="1236" d="M10 0l543 1458h590v-108h-389v-566h336v-108h-336v-567h389v-109h-510v403h-344l-148 -403h-131zM328 512h305v840z" />
<glyph unicode="&#xc7;" horiz-adv-x="817" d="M111 729q0 168 3 277.5t13 182.5t30.5 118t55.5 82q37 41 91 63.5t126 22.5q70 0 121 -20.5t88 -57.5q47 -47 69.5 -118t24.5 -155h-121q0 55 -12 106.5t-45 86.5q-23 23 -52.5 36t-72.5 13q-45 0 -75.5 -14.5t-53.5 -38.5q-23 -27 -36 -61.5t-21 -97t-10.5 -164 t-2.5 -261.5t2.5 -261t10.5 -163.5t21.5 -97.5t35.5 -62q23 -25 53.5 -39t75.5 -14q43 0 72.5 13.5t52.5 35.5q33 35 45 86.5t12 106.5h121q-2 -88 -25.5 -161t-76.5 -120q-37 -33 -86 -51t-115 -18q-72 0 -126 22.5t-91 63.5q-35 37 -55.5 82t-30.5 117.5t-13 182t-3 277.5 zM283 -348l108 272h92l-92 -272h-108z" />
<glyph unicode="&#xc8;" horiz-adv-x="745" d="M141 0v1458h508v-108h-387v-566h334v-108h-334v-567h387v-109h-508zM207 1831h119l135 -266h-101z" />
<glyph unicode="&#xc9;" horiz-adv-x="745" d="M141 0v1458h508v-108h-387v-566h334v-108h-334v-567h387v-109h-508zM348 1565l133 266h119l-151 -266h-101z" />
<glyph unicode="&#xca;" horiz-adv-x="745" d="M141 0v1458h508v-108h-387v-566h334v-108h-334v-567h387v-109h-508zM176 1565l176 266h103l178 -266h-107l-123 188l-122 -188h-105z" />
<glyph unicode="&#xcb;" horiz-adv-x="745" d="M141 0v1458h508v-108h-387v-566h334v-108h-334v-567h387v-109h-508zM199 1606v129h129v-129h-129zM479 1606v129h129v-129h-129z" />
<glyph unicode="&#xcc;" horiz-adv-x="403" d="M-2 1831h119l135 -266h-100zM141 0v1458h121v-1458h-121z" />
<glyph unicode="&#xcd;" horiz-adv-x="403" d="M141 0v1458h121v-1458h-121zM154 1565l133 266h119l-152 -266h-100z" />
<glyph unicode="&#xce;" horiz-adv-x="403" d="M-20 1565l176 266h102l178 -266h-106l-123 188l-123 -188h-104zM141 0v1458h121v-1458h-121z" />
<glyph unicode="&#xcf;" horiz-adv-x="403" d="M-4 1606v129h129v-129h-129zM141 0v1458h121v-1458h-121zM276 1606v129h130v-129h-130z" />
<glyph unicode="&#xd0;" horiz-adv-x="878" d="M41 680v100h109v678h301q72 0 125 -22.5t90 -61.5q35 -37 55 -80t30.5 -113.5t13.5 -178t3 -273.5t-3 -273.5t-13.5 -178t-31 -113.5t-54.5 -80q-37 -39 -90.5 -61.5t-124.5 -22.5h-301v680h-109zM270 109h174q43 0 76 14t55 37q25 27 38.5 59.5t21.5 94t10 159.5t2 256 q0 156 -2 255t-10 160.5t-21.5 94.5t-38.5 59q-23 23 -55.5 37.5t-75.5 14.5h-174v-570h187v-100h-187v-571z" />
<glyph unicode="&#xd1;" horiz-adv-x="929" d="M141 0v1458h121l408 -1136l-2 1136h120v-1458h-118l-408 1137v-1137h-121zM231 1665q51 51 84 64.5t62 13.5q35 0 58.5 -8.5t51.5 -26.5q23 -14 42.5 -23.5t41.5 -9.5q16 0 36 8.5t52 40.5l60 -59q-53 -53 -85 -65.5t-61 -12.5q-33 0 -57 9.5t-53 25.5q-23 12 -42.5 22.5 t-41.5 10.5q-18 0 -36.5 -7.5t-53.5 -41.5z" />
<glyph unicode="&#xd2;" horiz-adv-x="862" d="M111 729q0 168 3 277.5t13 182.5t30.5 118t55.5 82q37 41 91 63.5t126 22.5t127 -22.5t92 -63.5q35 -37 55.5 -82t30.5 -118t13.5 -182.5t3.5 -277.5t-3.5 -277.5t-13.5 -182t-30.5 -118t-55.5 -81.5q-37 -41 -92 -63.5t-127 -22.5t-126 22.5t-91 63.5q-35 37 -55.5 82 t-30.5 117.5t-13 182t-3 277.5zM225 1831h119l135 -266h-100zM231 729q0 -160 2.5 -261t10.5 -163.5t21.5 -97.5t35.5 -62q23 -25 53.5 -39t75.5 -14t77 14.5t54 38.5q23 27 36 62t21.5 97.5t10.5 163.5t2 261t-2 261.5t-10.5 164t-21.5 97t-36 61.5q-47 53 -131 53 q-45 0 -75.5 -14.5t-53.5 -38.5q-23 -27 -36 -61.5t-21 -97t-10.5 -164t-2.5 -261.5z" />
<glyph unicode="&#xd3;" horiz-adv-x="862" d="M111 729q0 168 3 277.5t13 182.5t30.5 118t55.5 82q37 41 91 63.5t126 22.5t127 -22.5t92 -63.5q35 -37 55.5 -82t30.5 -118t13.5 -182.5t3.5 -277.5t-3.5 -277.5t-13.5 -182t-30.5 -118t-55.5 -81.5q-37 -41 -92 -63.5t-127 -22.5t-126 22.5t-91 63.5q-35 37 -55.5 82 t-30.5 117.5t-13 182t-3 277.5zM231 729q0 -160 2.5 -261t10.5 -163.5t21.5 -97.5t35.5 -62q23 -25 53.5 -39t75.5 -14t77 14.5t54 38.5q23 27 36 62t21.5 97.5t10.5 163.5t2 261t-2 261.5t-10.5 164t-21.5 97t-36 61.5q-47 53 -131 53q-45 0 -75.5 -14.5t-53.5 -38.5 q-23 -27 -36 -61.5t-21 -97t-10.5 -164t-2.5 -261.5zM367 1565l133 266h118l-151 -266h-100z" />
<glyph unicode="&#xd4;" horiz-adv-x="862" d="M111 729q0 168 3 277.5t13 182.5t30.5 118t55.5 82q37 41 91 63.5t126 22.5t127 -22.5t92 -63.5q35 -37 55.5 -82t30.5 -118t13.5 -182.5t3.5 -277.5t-3.5 -277.5t-13.5 -182t-30.5 -118t-55.5 -81.5q-37 -41 -92 -63.5t-127 -22.5t-126 22.5t-91 63.5q-35 37 -55.5 82 t-30.5 117.5t-13 182t-3 277.5zM195 1565l176 266h102l178 -266h-106l-123 188l-123 -188h-104zM231 729q0 -160 2.5 -261t10.5 -163.5t21.5 -97.5t35.5 -62q23 -25 53.5 -39t75.5 -14t77 14.5t54 38.5q23 27 36 62t21.5 97.5t10.5 163.5t2 261t-2 261.5t-10.5 164t-21.5 97 t-36 61.5q-47 53 -131 53q-45 0 -75.5 -14.5t-53.5 -38.5q-23 -27 -36 -61.5t-21 -97t-10.5 -164t-2.5 -261.5z" />
<glyph unicode="&#xd5;" horiz-adv-x="862" d="M111 729q0 168 3 277.5t13 182.5t30.5 118t55.5 82q37 41 91 63.5t126 22.5t127 -22.5t92 -63.5q35 -37 55.5 -82t30.5 -118t13.5 -182.5t3.5 -277.5t-3.5 -277.5t-13.5 -182t-30.5 -118t-55.5 -81.5q-37 -41 -92 -63.5t-127 -22.5t-126 22.5t-91 63.5q-35 37 -55.5 82 t-30.5 117.5t-13 182t-3 277.5zM180 1665q51 51 84 64.5t62 13.5q35 0 58.5 -8.5t51.5 -26.5q23 -14 42.5 -23.5t41.5 -9.5q16 0 35.5 8.5t52.5 40.5l60 -59q-53 -53 -85 -65.5t-61 -12.5q-33 0 -57.5 9.5t-52.5 25.5q-23 12 -42.5 22.5t-41.5 10.5q-18 0 -37 -7.5 t-53 -41.5zM231 729q0 -160 2.5 -261t10.5 -163.5t21.5 -97.5t35.5 -62q23 -25 53.5 -39t75.5 -14t77 14.5t54 38.5q23 27 36 62t21.5 97.5t10.5 163.5t2 261t-2 261.5t-10.5 164t-21.5 97t-36 61.5q-47 53 -131 53q-45 0 -75.5 -14.5t-53.5 -38.5q-23 -27 -36 -61.5 t-21 -97t-10.5 -164t-2.5 -261.5z" />
<glyph unicode="&#xd6;" horiz-adv-x="862" d="M111 729q0 168 3 277.5t13 182.5t30.5 118t55.5 82q37 41 91 63.5t126 22.5t127 -22.5t92 -63.5q35 -37 55.5 -82t30.5 -118t13.5 -182.5t3.5 -277.5t-3.5 -277.5t-13.5 -182t-30.5 -118t-55.5 -81.5q-37 -41 -92 -63.5t-127 -22.5t-126 22.5t-91 63.5q-35 37 -55.5 82 t-30.5 117.5t-13 182t-3 277.5zM217 1606v129h129v-129h-129zM231 729q0 -160 2.5 -261t10.5 -163.5t21.5 -97.5t35.5 -62q23 -25 53.5 -39t75.5 -14t77 14.5t54 38.5q23 27 36 62t21.5 97.5t10.5 163.5t2 261t-2 261.5t-10.5 164t-21.5 97t-36 61.5q-47 53 -131 53 q-45 0 -75.5 -14.5t-53.5 -38.5q-23 -27 -36 -61.5t-21 -97t-10.5 -164t-2.5 -261.5zM498 1606v129h129v-129h-129z" />
<glyph unicode="&#xd7;" horiz-adv-x="882" d="M127 311l240 240l-240 242l74 73l241 -239l240 239l76 -73l-242 -242l242 -240l-76 -75l-240 241l-241 -241z" />
<glyph unicode="&#xd8;" horiz-adv-x="829" d="M111 729q0 168 3 277.5t13 182.5t30.5 118t55.5 82q37 41 91 63.5t126 22.5q94 0 164 -41l35 114h102l-57 -186q27 -35 42 -82t23.5 -121t10.5 -178.5t2 -251.5q0 -168 -3.5 -277.5t-13.5 -182t-30.5 -118t-55.5 -81.5q-37 -41 -92 -63.5t-127 -22.5q-96 0 -162 41 l-35 -115h-102l59 184q-27 35 -43 82t-24 120t-10 178.5t-2 254.5zM231 729q0 -102 1 -178t3.5 -131t7.5 -92t11 -64l303 1055q-43 47 -127 47q-45 0 -75.5 -14.5t-53.5 -38.5q-23 -27 -36 -61.5t-21 -97t-10.5 -164t-2.5 -261.5zM305 139q43 -47 125 -47q45 0 77 14.5 t54 38.5q23 27 36 62t21.5 97.5t10.5 163.5t2 261q0 100 -1 175t-3 128t-7.5 91t-11.5 65z" />
<glyph unicode="&#xd9;" horiz-adv-x="854" d="M125 303v1155h121v-1165q0 -94 53 -147.5t129 -53.5t128 53.5t52 147.5v1165h121v-1155q0 -78 -22.5 -136t-63.5 -99q-88 -84 -215 -84t-215 84q-41 41 -64.5 99t-23.5 136zM238 1831h118l136 -266h-101z" />
<glyph unicode="&#xda;" horiz-adv-x="854" d="M125 303v1155h121v-1165q0 -94 53 -147.5t129 -53.5t128 53.5t52 147.5v1165h121v-1155q0 -78 -22.5 -136t-63.5 -99q-88 -84 -215 -84t-215 84q-41 41 -64.5 99t-23.5 136zM379 1565l133 266h119l-152 -266h-100z" />
<glyph unicode="&#xdb;" horiz-adv-x="854" d="M125 303v1155h121v-1165q0 -94 53 -147.5t129 -53.5t128 53.5t52 147.5v1165h121v-1155q0 -78 -22.5 -136t-63.5 -99q-88 -84 -215 -84t-215 84q-41 41 -64.5 99t-23.5 136zM207 1565l176 266h102l179 -266h-107l-123 188l-123 -188h-104z" />
<glyph unicode="&#xdc;" horiz-adv-x="854" d="M125 303v1155h121v-1165q0 -94 53 -147.5t129 -53.5t128 53.5t52 147.5v1165h121v-1155q0 -78 -22.5 -136t-63.5 -99q-88 -84 -215 -84t-215 84q-41 41 -64.5 99t-23.5 136zM229 1606v129h129v-129h-129zM510 1606v129h129v-129h-129z" />
<glyph unicode="&#xdd;" horiz-adv-x="645" d="M6 1458h133l183 -667l184 667h133l-256 -848v-610h-121v610zM272 1565l134 266h118l-151 -266h-101z" />
<glyph unicode="&#xde;" horiz-adv-x="837" d="M141 0v1458h121v-315h166q66 0 123 -15.5t100 -59.5t67.5 -123t24.5 -208q0 -115 -20.5 -193.5t-60 -125.5t-98 -67.5t-136.5 -20.5h-166v-330h-121zM262 438h170q109 0 150 77t41 220t-41 221t-150 78h-170v-596z" />
<glyph unicode="&#xdf;" horiz-adv-x="763" d="M127 0v1196q0 78 19.5 125t54.5 82q33 33 83 52.5t103 19.5t102.5 -17.5t83.5 -52.5q47 -47 62.5 -103.5t15.5 -146.5q0 -51 -6 -103.5t-33 -99.5q-12 -20 -29.5 -39.5t-39.5 -33.5q18 -10 33.5 -23.5t27.5 -28.5q18 -23 31.5 -50t22 -68t11.5 -101.5t3 -148.5 q0 -74 -2 -133.5t-10.5 -106.5t-25 -84t-44.5 -65q-41 -41 -93.5 -55.5t-109.5 -14.5v102q39 0 69.5 10.5t51.5 32.5q31 33 40 103.5t9 216.5q0 135 -9 206.5t-40 106.5q-39 45 -102 45h-19v99h14q51 0 86 39t42.5 90t7.5 100q0 66 -9.5 107.5t-35.5 70.5q-18 23 -46 33 t-59 10q-59 0 -102 -43t-43 -129v-1200h-115z" />
<glyph unicode="&#xe0;" horiz-adv-x="720" d="M74 289q0 74 22.5 134t65.5 101q41 35 87 52.5t118 17.5h118v186q0 86 -34.5 132t-108.5 46q-29 0 -52.5 -11t-41.5 -27q-25 -27 -36 -60t-11 -86h-115q0 59 16.5 114.5t59.5 100.5q33 33 79 51.5t101 18.5q125 0 186 -66q37 -37 54.5 -88t17.5 -129v-776h-111v94 q-10 -23 -26.5 -41t-30.5 -28q-25 -18 -53.5 -29.5t-71.5 -11.5q-98 0 -166 69q-29 31 -48 90.5t-19 145.5zM156 1466h118l136 -266h-101zM188 291q0 -94 36 -149.5t110 -55.5q72 0 111.5 53.5t39.5 134.5v230h-114q-41 0 -70 -10.5t-57 -34.5q-27 -27 -41.5 -71t-14.5 -97z " />
<glyph unicode="&#xe1;" horiz-adv-x="720" d="M76 289q0 74 21.5 134t66.5 101q39 35 86 52.5t119 17.5h118v186q0 86 -35.5 132t-107.5 46q-31 0 -54.5 -11t-39.5 -27q-25 -27 -36 -60t-11 -86h-115q0 59 15.5 114.5t60.5 100.5q33 33 78 51.5t102 18.5q125 0 186 -66q35 -37 53.5 -88t18.5 -129v-776h-110v94 q-10 -23 -26.5 -41t-31.5 -28q-25 -18 -53.5 -29.5t-71.5 -11.5q-98 0 -166 69q-29 31 -48 90.5t-19 145.5zM190 291q0 -94 35 -149.5t111 -55.5q70 0 110.5 53.5t40.5 134.5v230h-114q-41 0 -71 -10.5t-56 -34.5q-27 -27 -41.5 -71t-14.5 -97zM299 1200l133 266h119 l-152 -266h-100z" />
<glyph unicode="&#xe2;" horiz-adv-x="720" d="M76 289q0 74 21.5 134t66.5 101q39 35 86 52.5t119 17.5h118v186q0 86 -35.5 132t-107.5 46q-31 0 -54.5 -11t-39.5 -27q-25 -27 -36 -60t-11 -86h-115q0 59 15.5 114.5t60.5 100.5q33 33 78 51.5t102 18.5q125 0 186 -66q35 -37 53.5 -88t18.5 -129v-776h-110v94 q-10 -23 -26.5 -41t-31.5 -28q-25 -18 -53.5 -29.5t-71.5 -11.5q-98 0 -166 69q-29 31 -48 90.5t-19 145.5zM125 1200l176 266h102l179 -266h-107l-123 189l-123 -189h-104zM190 291q0 -94 35 -149.5t111 -55.5q70 0 110.5 53.5t40.5 134.5v230h-114q-41 0 -71 -10.5 t-56 -34.5q-27 -27 -41.5 -71t-14.5 -97z" />
<glyph unicode="&#xe3;" horiz-adv-x="720" d="M76 289q0 74 21.5 134t66.5 101q39 35 86 52.5t119 17.5h118v186q0 86 -35.5 132t-107.5 46q-31 0 -54.5 -11t-39.5 -27q-25 -27 -36 -60t-11 -86h-115q0 59 15.5 114.5t60.5 100.5q33 33 78 51.5t102 18.5q125 0 186 -66q35 -37 53.5 -88t18.5 -129v-776h-110v94 q-10 -23 -26.5 -41t-31.5 -28q-25 -18 -53.5 -29.5t-71.5 -11.5q-98 0 -166 69q-29 31 -48 90.5t-19 145.5zM111 1300q51 51 83.5 64.5t61.5 13.5q35 0 58.5 -8t52.5 -27q23 -14 42 -23t42 -9q16 0 35.5 8t52.5 41l59 -60q-53 -53 -85 -65t-60 -12q-33 0 -57.5 9t-53.5 25 q-23 12 -42 22.5t-42 10.5q-18 0 -36.5 -7t-53.5 -42zM190 291q0 -94 35 -149.5t111 -55.5q70 0 110.5 53.5t40.5 134.5v230h-114q-41 0 -71 -10.5t-56 -34.5q-27 -27 -41.5 -71t-14.5 -97z" />
<glyph unicode="&#xe4;" horiz-adv-x="720" d="M76 289q0 74 21.5 134t66.5 101q39 35 86 52.5t119 17.5h118v186q0 86 -35.5 132t-107.5 46q-31 0 -54.5 -11t-39.5 -27q-25 -27 -36 -60t-11 -86h-115q0 59 15.5 114.5t60.5 100.5q33 33 78 51.5t102 18.5q125 0 186 -66q35 -37 53.5 -88t18.5 -129v-776h-110v94 q-10 -23 -26.5 -41t-31.5 -28q-25 -18 -53.5 -29.5t-71.5 -11.5q-98 0 -166 69q-29 31 -48 90.5t-19 145.5zM147 1241v129h129v-129h-129zM190 291q0 -94 35 -149.5t111 -55.5q70 0 110.5 53.5t40.5 134.5v230h-114q-41 0 -71 -10.5t-56 -34.5q-27 -27 -41.5 -71t-14.5 -97z M428 1241v129h129v-129h-129z" />
<glyph unicode="&#xe5;" horiz-adv-x="720" d="M76 289q0 74 21.5 134t66.5 101q39 35 86 52.5t119 17.5h118v186q0 86 -35.5 132t-107.5 46q-31 0 -54.5 -11t-39.5 -27q-25 -27 -36 -60t-11 -86h-115q0 59 15.5 114.5t60.5 100.5q33 33 78 51.5t102 18.5q125 0 186 -66q35 -37 53.5 -88t18.5 -129v-776h-110v94 q-10 -23 -26.5 -41t-31.5 -28q-25 -18 -53.5 -29.5t-71.5 -11.5q-98 0 -166 69q-29 31 -48 90.5t-19 145.5zM166 1378q0 78 54 131.5t132 53.5t132.5 -53.5t54.5 -131.5t-54.5 -132t-132.5 -54t-132 54t-54 132zM190 291q0 -94 35 -149.5t111 -55.5q70 0 110.5 53.5 t40.5 134.5v230h-114q-41 0 -71 -10.5t-56 -34.5q-27 -27 -41.5 -71t-14.5 -97zM246 1378q0 -45 30.5 -76.5t75.5 -31.5t77 31.5t32 76.5t-32 76t-77 31t-75.5 -31t-30.5 -76z" />
<glyph unicode="&#xe6;" horiz-adv-x="1114" d="M76 289q0 74 21.5 134t66.5 101q39 35 86 52.5t119 17.5h118v186q0 86 -35.5 132t-107.5 46q-61 0 -96 -38q-25 -27 -35 -61t-10 -85h-115q0 59 15.5 114.5t60.5 100.5q33 33 78 51.5t102 18.5q111 0 172 -58q23 -25 39 -51q14 25 29 39q31 33 74.5 51.5t99.5 18.5 q117 0 186 -76q55 -59 69.5 -175t14.5 -304h-426q0 -160 9.5 -245t43.5 -126q16 -20 44 -33.5t63 -13.5q66 0 104 41q45 47 45 147h113q-2 -76 -18.5 -127t-57.5 -92q-35 -35 -84 -53t-102 -18t-96 16t-74 45q-20 16 -36.5 42t-27.5 50q-14 -33 -32.5 -61.5t-40.5 -44.5 q-27 -23 -63 -35t-83 -12q-98 0 -166 69q-29 31 -48 90.5t-19 145.5zM190 291q0 -94 35 -149.5t111 -55.5q70 0 110.5 53.5t40.5 134.5v230h-114q-41 0 -71 -10.5t-56 -34.5q-27 -27 -41.5 -71t-14.5 -97zM602 596h311q-2 133 -12 205.5t-41 107.5q-16 20 -41.5 33.5 t-60.5 13.5t-60.5 -13t-42.5 -34q-31 -35 -41 -107.5t-12 -205.5z" />
<glyph unicode="&#xe7;" horiz-adv-x="696" d="M92 520q0 184 15.5 291t62.5 164q35 41 84 62.5t108 21.5t104.5 -14.5t80.5 -49.5q47 -47 59 -106.5t15 -122.5h-113q0 39 -6 78t-35 69q-20 23 -44 33t-58 10q-35 0 -63 -13t-44 -34q-35 -43 -43 -132t-8 -257t8 -256t43 -131q16 -20 44 -33.5t63 -13.5q59 0 100 41 q29 29 36 64.5t7 82.5h113q-2 -74 -18.5 -128t-55.5 -95q-66 -68 -185 -67q-59 0 -108 20.5t-84 61.5q-47 57 -62.5 163.5t-15.5 290.5zM225 -348l109 272h92l-92 -272h-109z" />
<glyph unicode="&#xe8;" horiz-adv-x="724" d="M166 520q0 188 15.5 298t68.5 165q70 76 186 76q117 0 187 -76q55 -59 68.5 -175t13.5 -304h-424q0 -160 9 -245t44 -126q16 -20 42.5 -33.5t61.5 -13.5q66 0 105 41q47 51 47 147h112q-2 -76 -18 -127t-57 -92q-35 -35 -85 -53t-104 -18q-119 0 -188 75 q-53 55 -68.5 164t-15.5 297zM238 1466h118l136 -266h-101zM281 596h309q-2 133 -11.5 205.5t-39.5 107.5q-16 20 -42 33.5t-61 13.5t-61.5 -13t-42.5 -34q-31 -35 -40 -107.5t-11 -205.5z" />
<glyph unicode="&#xe9;" horiz-adv-x="714" d="M92 520q0 188 15.5 298t68.5 165q70 76 186 76q117 0 187 -76q55 -59 68.5 -175t13.5 -304h-424q0 -160 9 -245t44 -126q16 -20 43 -33.5t62 -13.5q66 0 104 41q47 51 47 147h113q-2 -76 -18.5 -127t-57.5 -92q-35 -35 -85 -53t-103 -18q-119 0 -189 75q-53 55 -68.5 164 t-15.5 297zM207 596h309q-2 133 -11 205.5t-40 107.5q-16 20 -42 33.5t-61 13.5t-61.5 -13t-42.5 -34q-31 -35 -40 -107.5t-11 -205.5zM307 1200l133 266h119l-151 -266h-101z" />
<glyph unicode="&#xea;" horiz-adv-x="714" d="M92 520q0 188 15.5 298t68.5 165q70 76 186 76q117 0 187 -76q55 -59 68.5 -175t13.5 -304h-424q0 -160 9 -245t44 -126q16 -20 43 -33.5t62 -13.5q66 0 104 41q47 51 47 147h113q-2 -76 -18.5 -127t-57.5 -92q-35 -35 -85 -53t-103 -18q-119 0 -189 75q-53 55 -68.5 164 t-15.5 297zM135 1200l176 266h103l178 -266h-107l-123 189l-122 -189h-105zM207 596h309q-2 133 -11 205.5t-40 107.5q-16 20 -42 33.5t-61 13.5t-61.5 -13t-42.5 -34q-31 -35 -40 -107.5t-11 -205.5z" />
<glyph unicode="&#xeb;" horiz-adv-x="714" d="M92 520q0 188 15.5 298t68.5 165q70 76 186 76q117 0 187 -76q55 -59 68.5 -175t13.5 -304h-424q0 -160 9 -245t44 -126q16 -20 43 -33.5t62 -13.5q66 0 104 41q47 51 47 147h113q-2 -76 -18.5 -127t-57.5 -92q-35 -35 -85 -53t-103 -18q-119 0 -189 75q-53 55 -68.5 164 t-15.5 297zM158 1241v129h129v-129h-129zM207 596h309q-2 133 -11 205.5t-40 107.5q-16 20 -42 33.5t-61 13.5t-61.5 -13t-42.5 -34q-31 -35 -40 -107.5t-11 -205.5zM438 1241v129h129v-129h-129z" />
<glyph unicode="&#xec;" horiz-adv-x="370" d="M-10 1466h119l135 -266h-101zM129 0v1042h115v-1042h-115z" />
<glyph unicode="&#xed;" horiz-adv-x="370" d="M129 0v1042h115v-1042h-115zM129 1200l135 266h119l-154 -266h-100z" />
<glyph unicode="&#xee;" horiz-adv-x="370" d="M-43 1200l176 266h103l178 -266h-107l-123 189l-121 -189h-106zM129 0v1042h115v-1042h-115z" />
<glyph unicode="&#xef;" horiz-adv-x="370" d="M-20 1241v129h129v-129h-129zM129 0v1042h115v-1042h-115zM262 1241v129h129v-129h-129z" />
<glyph unicode="&#xf0;" horiz-adv-x="727" d="M92 510q0 96 3 169t12.5 127t23.5 92t39 65q66 72 174 71q29 0 58.5 -6t54.5 -22l-66 186h-168v90h137l-67 176h117l65 -176h148v-90h-117l80 -236q12 -37 21 -77.5t14.5 -92t8.5 -119t3 -157.5q0 -182 -15.5 -286.5t-62.5 -160.5q-68 -80 -193 -79q-125 0 -192 79 q-47 55 -62.5 160t-15.5 287zM207 512q0 -164 9 -252t44 -129q16 -20 42 -32.5t60 -12.5q35 0 62 12.5t43 32.5q35 41 43 129t8 252t-8 251t-43 128q-16 20 -43 32.5t-62 12.5t-60.5 -12.5t-41.5 -32.5q-35 -41 -44 -128t-9 -251z" />
<glyph unicode="&#xf1;" horiz-adv-x="763" d="M127 0v1042h113v-84q10 16 27.5 35t31.5 29q53 37 119 37q53 0 92 -18.5t72 -53.5q31 -33 47 -80t16 -125v-782h-115v784q0 86 -42 128t-101 42t-102 -42t-43 -128v-784h-115zM147 1300q51 51 84 64.5t62 13.5q35 0 58.5 -8t51.5 -27q23 -14 42.5 -23t41.5 -9q16 0 36 8 t52 41l60 -60q-53 -53 -85 -65t-61 -12q-33 0 -57 9t-53 25q-23 12 -42.5 22.5t-41.5 10.5q-18 0 -36.5 -7t-53.5 -42z" />
<glyph unicode="&#xf2;" horiz-adv-x="724" d="M166 520q0 184 15.5 291t62.5 164q68 84 192 84q125 0 193 -84q47 -57 62.5 -164t15.5 -291t-15.5 -290.5t-62.5 -163.5q-68 -82 -193 -82t-192 82q-47 57 -62.5 163.5t-15.5 290.5zM219 1466h119l135 -266h-100zM281 520q0 -168 8 -256t43 -131q16 -20 42.5 -33.5 t61.5 -13.5t60.5 13.5t42.5 33.5q35 43 44 131t9 256t-9.5 257t-43.5 132q-16 20 -42 33.5t-61 13.5t-61.5 -13t-42.5 -34q-35 -43 -43 -132t-8 -257z" />
<glyph unicode="&#xf3;" horiz-adv-x="722" d="M92 520q0 184 15.5 291t62.5 164q68 84 192 84q125 0 193 -84q47 -57 62.5 -164t15.5 -291t-15.5 -290.5t-62.5 -163.5q-68 -82 -193 -82t-192 82q-47 57 -62.5 163.5t-15.5 290.5zM207 520q0 -168 8 -256t43 -131q16 -20 43 -33.5t61 -13.5q35 0 61 13.5t42 33.5 q35 43 44 131t9 256t-9 257t-44 132q-16 20 -42 33.5t-61 13.5t-61.5 -13t-42.5 -34q-35 -43 -43 -132t-8 -257zM307 1200l133 266h119l-151 -266h-101z" />
<glyph unicode="&#xf4;" horiz-adv-x="722" d="M92 520q0 184 15.5 291t62.5 164q68 84 192 84q125 0 193 -84q47 -57 62.5 -164t15.5 -291t-15.5 -290.5t-62.5 -163.5q-68 -82 -193 -82t-192 82q-47 57 -62.5 163.5t-15.5 290.5zM135 1200l176 266h103l178 -266h-107l-123 189l-122 -189h-105zM207 520q0 -168 8 -256 t43 -131q16 -20 43 -33.5t61 -13.5q35 0 61 13.5t42 33.5q35 43 44 131t9 256t-9 257t-44 132q-16 20 -42 33.5t-61 13.5t-61.5 -13t-42.5 -34q-35 -43 -43 -132t-8 -257z" />
<glyph unicode="&#xf5;" horiz-adv-x="722" d="M92 520q0 184 15.5 291t62.5 164q68 84 192 84q125 0 193 -84q47 -57 62.5 -164t15.5 -291t-15.5 -290.5t-62.5 -163.5q-68 -82 -193 -82t-192 82q-47 57 -62.5 163.5t-15.5 290.5zM121 1300q51 51 84 64.5t61 13.5q35 0 58.5 -8t52.5 -27q23 -14 42 -23t42 -9 q16 0 35.5 8t52.5 41l59 -60q-53 -53 -84.5 -65t-60.5 -12q-33 0 -57.5 9t-53.5 25q-23 12 -42 22.5t-42 10.5q-18 0 -36.5 -7t-53.5 -42zM207 520q0 -168 8 -256t43 -131q16 -20 43 -33.5t61 -13.5q35 0 61 13.5t42 33.5q35 43 44 131t9 256t-9 257t-44 132 q-16 20 -42 33.5t-61 13.5t-61.5 -13t-42.5 -34q-35 -43 -43 -132t-8 -257z" />
<glyph unicode="&#xf6;" horiz-adv-x="722" d="M92 520q0 184 15.5 291t62.5 164q68 84 192 84q125 0 193 -84q47 -57 62.5 -164t15.5 -291t-15.5 -290.5t-62.5 -163.5q-68 -82 -193 -82t-192 82q-47 57 -62.5 163.5t-15.5 290.5zM158 1241v129h129v-129h-129zM207 520q0 -168 8 -256t43 -131q16 -20 43 -33.5t61 -13.5 q35 0 61 13.5t42 33.5q35 43 44 131t9 256t-9 257t-44 132q-16 20 -42 33.5t-61 13.5t-61.5 -13t-42.5 -34q-35 -43 -43 -132t-8 -257zM438 1241v129h129v-129h-129z" />
<glyph unicode="&#xf7;" horiz-adv-x="882" d="M100 508v108h684v-108h-684zM367 182v156h153v-156h-153zM367 786v154h153v-154h-153z" />
<glyph unicode="&#xf8;" horiz-adv-x="710" d="M86 -90l68 178q-37 59 -49.5 162.5t-12.5 269.5q0 184 15.5 291t62.5 164q68 84 192 84q43 0 77 -10.5t63 -28.5l41 113h94l-66 -179q37 -59 49.5 -163.5t12.5 -270.5q0 -184 -15.5 -290.5t-62.5 -163.5q-68 -82 -193 -82q-86 0 -141 36l-41 -110h-94zM207 520 q0 -100 3 -167.5t13 -108.5l240 671q-16 18 -42 30.5t-59 12.5q-68 0 -104 -47q-35 -43 -43 -133t-8 -258zM262 125q37 -41 100 -41q66 0 103 47q35 43 44 132t9 257q0 100 -3 169t-13 110z" />
<glyph unicode="&#xf9;" horiz-adv-x="763" d="M119 260v782h114v-784q0 -86 42 -128t102 -42q59 0 102 42t43 128v784h115v-1042h-113v84q-10 -16 -27.5 -34.5t-31.5 -29.5q-53 -37 -119 -36q-53 0 -92 17t-72 52q-31 33 -47 81t-16 126zM190 1466h119l135 -266h-100z" />
<glyph unicode="&#xfa;" horiz-adv-x="763" d="M119 260v782h114v-784q0 -86 42 -128t102 -42q59 0 102 42t43 128v784h115v-1042h-113v84q-10 -16 -27.5 -34.5t-31.5 -29.5q-53 -37 -119 -36q-53 0 -92 17t-72 52q-31 33 -47 81t-16 126zM340 1200l133 266h119l-152 -266h-100z" />
<glyph unicode="&#xfb;" horiz-adv-x="763" d="M119 260v782h114v-784q0 -86 42 -128t102 -42q59 0 102 42t43 128v784h115v-1042h-113v84q-10 -16 -27.5 -34.5t-31.5 -29.5q-53 -37 -119 -36q-53 0 -92 17t-72 52q-31 33 -47 81t-16 126zM162 1200l176 266h102l178 -266h-106l-123 189l-123 -189h-104z" />
<glyph unicode="&#xfc;" horiz-adv-x="763" d="M119 260v782h114v-784q0 -86 42 -128t102 -42q59 0 102 42t43 128v784h115v-1042h-113v84q-10 -16 -27.5 -34.5t-31.5 -29.5q-53 -37 -119 -36q-53 0 -92 17t-72 52q-31 33 -47 81t-16 126zM184 1241v129h129v-129h-129zM465 1241v129h129v-129h-129z" />
<glyph unicode="&#xfd;" horiz-adv-x="630" d="M8 1042h127l178 -860l179 860h124l-294 -1245q-29 -121 -107 -167t-197 -46v103q86 0 130.5 33.5t60.5 99.5l47 184zM268 1200l133 266h119l-151 -266h-101z" />
<glyph unicode="&#xfe;" horiz-adv-x="749" d="M129 -416v1874h113v-500q8 16 26.5 35t30.5 29q51 37 119 37q96 0 162 -74q47 -55 62 -162.5t15 -302.5t-15 -301t-62 -162q-29 -35 -69 -54t-93 -19q-68 0 -119 32q-16 10 -30.5 27.5t-24.5 34.5v-494h-115zM244 268q0 -98 47 -145q39 -37 100 -37q31 0 57.5 13.5 t43.5 33.5q35 43 43 131t8 256t-8.5 257t-42.5 132q-16 20 -43 33.5t-58 13.5q-57 0 -100 -38q-47 -47 -47 -144v-506z" />
<glyph unicode="&#xff;" horiz-adv-x="630" d="M8 1042h127l178 -860l179 860h124l-294 -1245q-29 -121 -107 -167t-197 -46v103q86 0 130.5 33.5t60.5 99.5l47 184zM119 1241v129h129v-129h-129zM399 1241v129h129v-129h-129z" />
<glyph unicode="&#x152;" horiz-adv-x="1232" d="M111 729q0 168 4 278.5t14 183.5t30.5 117t53.5 81q37 41 92 63.5t123 22.5q139 0 207 -99v82h504v-108h-389v-566h335v-108h-335v-567h389v-109h-504v82q-70 -98 -207 -98q-68 0 -123 22.5t-92 63.5q-33 37 -53.5 81t-30.5 116.5t-14 183t-4 278.5zM231 729 q0 -160 2.5 -261t10.5 -163.5t21.5 -97.5t35.5 -62q23 -25 53.5 -39t75.5 -14t77 14.5t54 38.5q23 27 36 62t21.5 97.5t10.5 163.5t2 261t-2 261.5t-10.5 164t-21.5 97t-36 61.5q-47 53 -131 53q-45 0 -75.5 -14.5t-53.5 -38.5q-23 -27 -36 -61.5t-21 -97t-10.5 -164 t-2.5 -261.5z" />
<glyph unicode="&#x153;" horiz-adv-x="1144" d="M92 520q0 184 15.5 291t62.5 164q68 84 192 84q57 0 101.5 -18.5t75.5 -51.5q23 -27 36 -57q14 33 39 57q31 31 74 50.5t98 19.5q117 0 187 -76q55 -59 69.5 -175t14.5 -304h-424q0 -160 9 -245t44 -126q16 -20 43 -33.5t62 -13.5q66 0 104 41q47 51 47 147h113 q-2 -76 -19.5 -127t-58.5 -92q-35 -35 -84 -53t-102 -18q-57 0 -101.5 19.5t-75.5 49.5q-25 25 -39 60q-14 -35 -38 -60q-31 -31 -74 -50t-101 -19q-125 0 -192 82q-47 57 -62.5 163.5t-15.5 290.5zM207 520q0 -168 8 -256t43 -131q16 -20 43 -33.5t61 -13.5q35 0 61 13.5 t42 33.5q35 43 44 131t9 256t-9 257t-44 132q-16 20 -42 33.5t-61 13.5t-61.5 -13t-42.5 -34q-35 -43 -43 -132t-8 -257zM633 596h309q-2 133 -11 205.5t-40 107.5q-16 20 -43 33.5t-62 13.5t-60.5 -13t-41.5 -34q-31 -35 -40 -107.5t-11 -205.5z" />
<glyph unicode="&#x178;" horiz-adv-x="645" d="M6 1458h133l183 -667l184 667h133l-256 -848v-610h-121v610zM123 1606v129h129v-129h-129zM403 1606v129h129v-129h-129z" />
<glyph unicode="&#x2c6;" horiz-adv-x="724" d="M135 1200l176 266h103l178 -266h-107l-123 189l-122 -189h-105z" />
<glyph unicode="&#x2dc;" horiz-adv-x="724" d="M121 1300q51 51 84 64.5t61 13.5q35 0 58.5 -8t52.5 -27q23 -14 42 -23t42 -9q16 0 35.5 8t52.5 41l59 -60q-53 -53 -84.5 -65t-60.5 -12q-33 0 -57.5 9t-53.5 25q-23 12 -42 22.5t-42 10.5q-18 0 -36.5 -7t-53.5 -42z" />
<glyph unicode="&#x2000;" horiz-adv-x="955" />
<glyph unicode="&#x2001;" horiz-adv-x="1911" />
<glyph unicode="&#x2002;" horiz-adv-x="955" />
<glyph unicode="&#x2003;" horiz-adv-x="1911" />
<glyph unicode="&#x2004;" horiz-adv-x="637" />
<glyph unicode="&#x2005;" horiz-adv-x="477" />
<glyph unicode="&#x2006;" horiz-adv-x="318" />
<glyph unicode="&#x2007;" horiz-adv-x="318" />
<glyph unicode="&#x2008;" horiz-adv-x="238" />
<glyph unicode="&#x2009;" horiz-adv-x="382" />
<glyph unicode="&#x200a;" horiz-adv-x="106" />
<glyph unicode="&#x2010;" horiz-adv-x="616" d="M113 514v109h391v-109h-391z" />
<glyph unicode="&#x2011;" horiz-adv-x="616" d="M113 514v109h391v-109h-391z" />
<glyph unicode="&#x2012;" horiz-adv-x="616" d="M113 514v109h391v-109h-391z" />
<glyph unicode="&#x2013;" horiz-adv-x="882" d="M100 514v109h684v-109h-684z" />
<glyph unicode="&#x2014;" horiz-adv-x="1374" d="M113 514v109h1149v-109h-1149z" />
<glyph unicode="&#x2018;" horiz-adv-x="376" d="M119 1305v153l141 105v-258h-141z" />
<glyph unicode="&#x2019;" horiz-adv-x="376" d="M119 1200v258h141v-153z" />
<glyph unicode="&#x201a;" horiz-adv-x="376" d="M119 -104v258h141v-154z" />
<glyph unicode="&#x201c;" horiz-adv-x="671" d="M119 1305v153l141 105v-258h-141zM414 1305v153l141 105v-258h-141z" />
<glyph unicode="&#x201d;" horiz-adv-x="671" d="M119 1200v258h141v-153zM414 1200v258h141v-153z" />
<glyph unicode="&#x201e;" horiz-adv-x="671" d="M119 -104v258h141v-154zM414 -104v258h141v-154z" />
<glyph unicode="&#x2022;" horiz-adv-x="950" d="M141 684q0 70 27 130t72 105.5t105.5 72t129.5 26.5q70 0 130.5 -26.5t105.5 -72t71.5 -105.5t26.5 -130t-26.5 -130t-71.5 -105.5t-105.5 -72t-130.5 -26.5t-130 26.5t-105 72t-72 105.5t-27 130z" />
<glyph unicode="&#x2026;" horiz-adv-x="1122" d="M127 0v154h154v-154h-154zM485 0v154h154v-154h-154zM842 0v154h155v-154h-155z" />
<glyph unicode="&#x202f;" horiz-adv-x="382" />
<glyph unicode="&#x2039;" horiz-adv-x="448" d="M59 549l277 430v-197l-154 -233l154 -236v-194z" />
<glyph unicode="&#x203a;" horiz-adv-x="448" d="M113 119v194l155 236l-155 233v197l278 -430z" />
<glyph unicode="&#x205f;" horiz-adv-x="477" />
<glyph unicode="&#x20ac;" horiz-adv-x="917" d="M72 537v90h129v204h-129v91h129q2 115 7 191.5t17.5 127.5t30.5 85t47 63q37 41 91.5 63.5t125.5 22.5q70 0 121 -20.5t88 -57.5q47 -47 68.5 -118t23.5 -155h-121q0 45 -8 89t-27.5 78t-54.5 54.5t-90 20.5q-84 0 -131 -53q-18 -23 -30.5 -47.5t-19.5 -65.5t-10 -107.5 t-5 -170.5h272v-91h-274v-204h274v-90h-272q2 -104 5 -171t11 -108t20.5 -66.5t30.5 -46.5q23 -25 53.5 -39t75.5 -14q55 0 90 20.5t55.5 54.5t28.5 78t8 89h121q-2 -88 -25.5 -161t-76.5 -120q-37 -33 -86 -51t-115 -18q-72 0 -126 22.5t-91 63.5q-29 29 -47 62.5 t-30.5 84.5t-17.5 128t-7 192h-129z" />
<glyph unicode="&#x2122;" horiz-adv-x="1232" d="M68 1378v80h389v-80h-152v-800h-86v800h-151zM573 578v880h86l185 -493l184 493h86v-880h-88v661l-149 -422h-64l-151 408v-647h-89z" />
<glyph unicode="&#xe000;" horiz-adv-x="1044" d="M0 0v1044h1044v-1044h-1044z" />
<glyph unicode="&#xfb01;" horiz-adv-x="817" d="M33 952v90h127v142q0 141 78 213q45 41 100 53t115 12v-102q-178 0 -179 -176v-142h179v-90h-179v-952h-114v952h-127zM559 1282v148h148v-148h-148zM575 0v1042h115v-1042h-115z" />
<glyph unicode="&#xfb02;" horiz-adv-x="890" d="M33 952v90h127v142q0 141 78 213q45 41 100 53t115 12v-102q-178 0 -179 -176v-142h179v-90h-179v-952h-114v952h-127zM575 279v1179h115v-1179q0 -86 42 -131.5t128 -45.5v-102q-59 0 -111.5 12.5t-95.5 53.5q-37 35 -57.5 85t-20.5 128z" />
</font>
</defs>
</svg>
